<svg width="24" height="30" viewBox="0 0 24 30" fill="none" xmlns="http://www.w3.org/2000/svg">
<path fill-rule="evenodd" clip-rule="evenodd" d="M12.198 8.603C13.36 8.603 15.5388 6.98748 17.8328 7.22308C18.7929 7.26383 21.4872 7.61811 23.2179 10.199C23.0797 10.2912 20.001 12.1175 20.0382 15.9207C20.0772 20.4661 23.9441 21.9753 23.9884 21.9984C23.953 22.1011 23.3702 24.1524 21.9495 26.271C20.722 28.1009 19.4501 29.9219 17.4448 29.9591C15.4733 29.998 14.8391 28.7669 12.5841 28.7669C10.3309 28.7669 9.62764 29.9219 7.76058 29.998C5.82444 30.0724 4.35062 28.0212 3.11417 26.1984C0.584609 22.466 -1.34798 15.6567 1.24712 11.0599C2.53494 8.77661 4.83775 7.33114 7.33898 7.29394C9.2397 7.25852 11.0359 8.603 12.198 8.603ZM18.3711 0C18.5748 1.72712 17.8291 3.46133 16.729 4.71016C15.6237 5.95723 13.815 6.92797 12.0419 6.79687C11.8027 5.10164 12.6973 3.34087 13.7176 2.23197C14.8584 0.984906 16.7839 0.0602344 18.3711 0Z" fill="white"/>
</svg>
