<svg width="30" height="30" viewBox="0 0 30 30" fill="none" xmlns="http://www.w3.org/2000/svg">
<path d="M18.75 15C18.75 15.7417 18.5301 16.4667 18.118 17.0834C17.706 17.7001 17.1203 18.1807 16.4351 18.4645C15.7498 18.7484 14.9958 18.8226 14.2684 18.6779C13.541 18.5333 12.8728 18.1761 12.3483 17.6516C11.8239 17.1272 11.4667 16.459 11.3221 15.7316C11.1774 15.0042 11.2516 14.2502 11.5355 13.5649C11.8193 12.8797 12.2999 12.294 12.9166 11.882C13.5333 11.4699 14.2583 11.25 15 11.25C15.9936 11.2531 16.9456 11.6492 17.6482 12.3518C18.3508 13.0544 18.7469 14.0064 18.75 15ZM26.7188 9.84375V20.1562C26.7188 21.8967 26.0273 23.5659 24.7966 24.7966C23.5659 26.0273 21.8967 26.7188 20.1562 26.7188H9.84375C8.10327 26.7188 6.43407 26.0273 5.20336 24.7966C3.97265 23.5659 3.28125 21.8967 3.28125 20.1562V9.84375C3.28125 8.10327 3.97265 6.43407 5.20336 5.20336C6.43407 3.97265 8.10327 3.28125 9.84375 3.28125H20.1562C21.8967 3.28125 23.5659 3.97265 24.7966 5.20336C26.0273 6.43407 26.7188 8.10327 26.7188 9.84375ZM20.625 15C20.625 13.8875 20.2951 12.7999 19.677 11.8749C19.0589 10.9499 18.1804 10.2289 17.1526 9.80318C16.1248 9.37744 14.9938 9.26604 13.9026 9.48308C12.8115 9.70013 11.8092 10.2359 11.0225 11.0225C10.2359 11.8092 9.70013 12.8115 9.48308 13.9026C9.26604 14.9938 9.37744 16.1248 9.80318 17.1526C10.2289 18.1804 10.9499 19.0589 11.8749 19.677C12.7999 20.2951 13.8875 20.625 15 20.625C16.4918 20.625 17.9226 20.0324 18.9775 18.9775C20.0324 17.9226 20.625 16.4918 20.625 15ZM22.5 8.90625C22.5 8.62812 22.4175 8.35624 22.263 8.12498C22.1085 7.89372 21.8889 7.71348 21.6319 7.60704C21.3749 7.50061 21.0922 7.47276 20.8194 7.52702C20.5466 7.58128 20.296 7.71521 20.0994 7.91188C19.9027 8.10855 19.7688 8.35912 19.7145 8.6319C19.6603 8.90469 19.6881 9.18744 19.7945 9.4444C19.901 9.70136 20.0812 9.92098 20.3125 10.0755C20.5437 10.23 20.8156 10.3125 21.0938 10.3125C21.4667 10.3125 21.8244 10.1643 22.0881 9.90062C22.3518 9.6369 22.5 9.27921 22.5 8.90625Z" fill="#6BA740"/>
</svg>
